Coordinates
version=1
nRows=29
nColumns=24
inDegrees=yes

Units are S.I. units (second, meters, Newtons, ...)
Angles are in degrees.

endheader
time	pelvis_tilt	pelvis_list	pelvis_rotation	pelvis_tx	pelvis_ty	pelvis_tz	hip_flexion_r	hip_adduction_r	hip_rotation_r	knee_angle_r	ankle_angle_r	subtalar_angle_r	mtp_angle_r	hip_flexion_l	hip_adduction_l	hip_rotation_l	knee_angle_l	ankle_angle_l	subtalar_angle_l	mtp_angle_l	lumbar_extension	lumbar_bending	lumbar_rotation
      5.84000000	      1.08395736	     -1.00881178	      8.42749787	      0.15493303	      0.95325794	      0.21077860	      6.32754663	      6.66086915	     -2.27237001	    -14.22331414	     17.01629238	     -3.11605080	      0.00000000	     21.76429608	      1.89823665	      2.21123359	    -59.52595665	      7.72039374	     -2.66479876	      0.00000000	    -18.72330069	     -0.00049536	      4.06195997
      5.85000000	      0.90072814	     -0.80680191	      8.09441046	      0.16649780	      0.95372940	      0.21122627	      5.41886702	      6.59363913	     -1.78429090	    -13.65298326	     17.43803834	     -3.07021100	      0.00000000	     22.70952688	      2.14383686	      1.95303886	    -57.73638074	      8.25790693	     -2.94416709	      0.00000000	    -18.55564422	     -0.35053268	      4.07447050
      5.86000000	      0.75106835	     -0.63177836	      7.74937606	      0.17805151	      0.95402791	      0.21159873	      4.48138624	      6.53604751	     -1.30008499	    -13.08560658	     17.84192809	     -3.00104403	      0.00000000	     23.52591498	      2.34917637	      1.74314487	    -55.70391677	      8.62939799	     -3.19581410	      0.00000000	    -18.43106429	     -0.64258867	      4.13922690
      5.87000000	      0.61396040	     -0.50525275	      7.41850596	      0.18958830	      0.95407944	      0.21187910	      3.55102652	      6.50311792	     -0.90858875	    -12.53644639	     18.23847385	     -2.89875511	      0.00000000	     24.24551922	      2.49619782	      1.58857451	    -53.44695608	      8.94978706	     -3.39736582	      0.00000000	    -18.32203497	     -0.85148770	      4.15533985
      5.88000000	      0.49372410	     -0.42772659	      7.09056237	      0.20114126	      0.95389032	      0.21209803	      2.61709863	      6.50202213	     -0.57179927	    -12.00263949	     18.63671774	     -2.75108542	      0.00000000	     24.85086091	      2.58867191	      1.50839805	    -50.96377118	      9.18976844	     -3.49751595	      0.00000000	    -18.22683795	     -0.98986612	      4.17818485
      5.89000000	      0.36257102	     -0.40116886	      6.76245319	      0.21272511	      0.95341251	      0.21225168	      1.70920991	      6.53266302	     -0.27837589	    -11.48664840	     19.04076144	     -2.59065517	      0.00000000	     25.37171910	      2.62385447	      1.48507911	    -48.26456843	      9.39736241	     -3.47848087	      0.00000000	    -18.11229511	     -1.05101563	      4.17210514
      5.90000000	      0.28149358	     -0.42359647	      6.42390480	      0.22436763	      0.95275632	      0.21237261	      0.74607252	      6.60451995	      0.00318397	    -10.96687493	     19.44757893	     -2.36991904	      0.00000000	     25.73170124	      2.59956034	      1.54171418	    -45.34853732	      9.50701196	     -3.31181468	      0.00000000	    -18.04901885	     -1.04155048	      4.22804017
      5.91000000	      0.24547063	     -0.51163424	      6.07931036	      0.23605671	      0.95191870	      0.21244251	     -0.25875199	      6.72945235	      0.22626712	    -10.45186217	     19.83614389	     -2.06559866	      0.00000000	     25.94124866	      2.50650367	      1.70607721	    -42.23418730	      9.57523828	     -2.98606052	      0.00000000	    -18.03833709	     -0.93427034	      4.32729107
      5.92000000	      0.19082731	     -0.64242793	      5.69973802	      0.24782601	      0.95082345	      0.21252125	     -1.23032178	      6.88169510	      0.46362489	     -9.96995168	     20.24390628	     -1.73425782	      0.00000000	     26.06507748	      2.35072736	      1.91879609	    -38.93525533	      9.61538752	     -2.52437096	      0.00000000	    -17.99828014	     -0.77936187	      4.43784823
      5.93000000	      0.14627091	     -0.81409905	      5.27764392	      0.25966231	      0.94954976	      0.21261943	     -2.19711896	      7.06197428	      0.72412789	     -9.52530491	     20.64425417	     -1.38338045	      0.00000000	     26.06869833	      2.13207149	      2.20605879	    -35.46072644	      9.59873859	     -1.96401050	      0.00000000	    -17.96907060	     -0.57802426	      4.60319138
      5.94000000	      0.12108509	     -1.01400716	      4.80984757	      0.27157488	      0.94815222	      0.21275838	     -3.16570163	      7.25862409	      1.01206631	     -9.13011947	     21.02981190	     -1.00960931	      0.00000000	     25.93581153	      1.85716577	      2.57888505	    -31.82146646	      9.50776729	     -1.37902176	      0.00000000	    -17.97110132	     -0.35246696	      4.82483536
      5.95000000	      0.05614877	     -1.23781040	      4.26247677	      0.28353384	      0.94658223	      0.21297631	     -4.05214774	      7.46349190	      1.42013022	     -8.82688405	     21.42928703	     -0.69226741	      0.00000000	     25.73010083	      1.51790089	      3.02066106	    -28.03621859	      9.28793748	     -0.85299511	      0.00000000	    -17.94096281	     -0.11370832	      5.10122837
      5.96000000	      0.10334902	     -1.47683571	      3.67923056	      0.29560342	      0.94510799	      0.21322936	     -5.05425548	      7.67411929	      1.78967819	     -8.55114944	     21.75683191	     -0.33661914	      0.00000000	     25.27475154	      1.12028398	      3.56937148	    -24.11097536	      9.00373174	     -0.52435736	      0.00000000	    -18.05508694	      0.13747677	      5.48191672
      5.97000000	      0.21770104	     -1.72313146	      3.12382330	      0.30774037	      0.94367915	      0.21339480	     -6.08464286	      7.87676868	      1.97860108	     -8.37003572	     22.01142485	      0.07558320	      0.00000000	     24.60787556	      0.73712198	      4.51341121	    -20.04569991	      8.41074219	     -0.86584818	      0.00000000	    -18.27720367	      0.40685088	      5.77489251
      5.98000000	      0.29972798	     -1.99653768	      2.47108647	      0.32000385	      0.94216467	      0.21371686	     -7.04893821	      8.08964326	      2.31576371	     -8.28096873	     22.25654326	      0.44653333	      0.00000000	     23.86881825	      0.24285186	      5.50934371	    -15.94598107	      7.63037859	     -1.70812790	      0.00000000	    -18.45428410	      0.66903509	      6.16537087
      5.99000000	      0.48043631	     -2.32927401	      1.85734663	      0.33238463	      0.94073567	      0.21402700	     -8.10235072	      8.36304864	      2.61844969	     -8.24412550	     22.39792565	      0.69237986	      0.00000000	     22.97520551	     -0.36189763	      6.52954547	    -11.94269161	      6.68144025	     -2.89461500	      0.00000000	    -18.75343469	      1.00052591	      6.52840310
      6.00000000	      0.59752472	     -2.70119553	      1.19971444	      0.34494177	      0.93918537	      0.21443221	     -9.05799614	      8.65398080	      2.97868685	     -8.30194634	     22.43258999	      0.94089733	      0.00000000	     22.13750493	     -1.06237583	      7.40106883	     -8.18737677	      5.60724000	     -4.57574167	      0.00000000	    -18.94312776	      1.34244437	      6.92720983
      6.01000000	      0.79957737	     -3.11188834	      0.63722298	      0.35759428	      0.93776182	      0.21473730	    -10.07483062	      8.98169403	      3.26106018	     -8.43632017	     22.43360502	      1.13121123	      0.00000000	     21.34668085	     -1.79874719	      7.50897722	     -4.96427189	      4.76782258	     -5.63225545	      0.00000000	    -19.23496943	      1.74645058	      7.20264312
      6.02000000	      0.91371285	     -3.46836282	      0.09245274	      0.37041497	      0.93631831	      0.21498831	    -10.94879927	      9.22829215	      3.54756511	     -8.69279299	     22.37703108	      1.37411880	      0.00000000	     20.78998648	     -2.41974766	      6.79827624	     -2.37330623	      4.20010877	     -6.11691898	      0.00000000	    -19.37747090	      2.07392374	      7.44443427
      6.03000000	      1.00203625	     -3.76127522	     -0.38346847	      0.38334651	      0.93498081	      0.21503652	    -11.70814789	      9.38663900	      3.71652179	     -9.11915586	     22.17980181	      1.61488779	      0.00000000	     20.40771359	     -2.85381378	      5.66447089	     -0.47097900	      3.81962428	     -6.49353483	      0.00000000	    -19.46727299	      2.35360297	      7.58816266
      6.04000000	      1.18030115	     -3.95438218	     -0.74052976	      0.39646960	      0.93394349	      0.21480668	    -12.51988041	      9.43048624	      3.80824467	     -9.63108110	     21.93782755	      1.89066865	      0.00000000	     20.05857755	     -3.05388648	      4.37568262	      0.73485087	      3.63123312	     -6.81210965	      0.00000000	    -19.62522449	      2.55307874	      7.57426817
      6.05000000	      1.37872491	     -4.04253944	     -1.01148931	      0.40973412	      0.93313854	      0.21438033	    -13.23071801	      9.34806505	      3.67588909	    -10.35952767	     21.58755409	      2.36608528	      0.00000000	     19.83259060	     -3.05089154	      2.86632971	      1.20585746	      3.82631153	     -6.61237854	      0.00000000	    -19.77635701	      2.63789840	      7.46076891
      6.06000000	      1.47365674	     -4.07417259	     -1.23460814	      0.42316758	      0.93234878	      0.21382473	    -13.71352975	      9.21355354	      3.59343867	    -11.30196422	     21.07953488	      2.61547901	      0.00000000	     19.78562253	     -2.94463764	      1.78749600	      1.08708983	      3.80632131	     -6.94637924	      0.00000000	    -19.75615247	      2.66949629	      7.30750612
      6.07000000	      1.72572906	     -3.99799845	     -1.36619382	      0.43683743	      0.93196732	      0.21309893	    -14.24298660	      8.93828825	      3.10099945	    -12.45645757	     20.74275600	      3.46046949	      0.00000000	     19.66531145	     -2.68736212	      0.42145258	      0.36541215	      4.33459236	     -6.22096871	      0.00000000	    -19.89262045	      2.56646033	      7.03226520
      6.08000000	      1.88246436	     -3.93346901	     -1.43388598	      0.45068783	      0.93157664	      0.21226327	    -14.55261879	      8.68698524	      2.56460347	    -13.81070569	     20.07909909	      4.01205103	      0.00000000	     19.64886999	     -2.43749003	     -0.30199778	     -0.71828242	      4.44061777	     -5.85681418	      0.00000000	    -19.88063275	      2.48811727	      6.72432771
      6.09000000	      2.08173427	     -3.77736658	     -1.53900482	      0.46483113	      0.93142594	      0.21145887	    -14.79163784	      8.30007730	      1.90913685	    -15.37373105	     19.26601930	      4.69049753	      0.00000000	     19.50212677	     -2.11690310	     -0.49366426	     -1.99271645	      4.46300534	     -5.50494833	      0.00000000	    -19.87883720	      2.25893060	      6.49047218
      6.10000000	      2.29149412	     -3.58261503	     -1.58382065	      0.47917234	      0.93146600	      0.21056208	    -14.95489279	      7.87587664	      1.20435700	    -17.05771897	     18.12450487	      5.09015473	      0.00000000	     19.29555529	     -1.73469715	     -0.14112954	     -3.38825537	      4.09018561	     -5.20106914	      0.00000000	    -19.87102703	      1.98317197	      6.14659880
      6.11000000	      2.51766403	     -3.25365689	     -1.65049746	      0.49373792	      0.93176692	      0.20962846	    -14.99854739	      7.22534945	      0.09841604	    -18.94154913	     16.96876234	      6.00214515	      0.00000000	     19.01321877	     -1.20167707	      0.62924205	     -4.85274247	      3.58838666	     -4.76178644	      0.00000000	    -19.85747015	      1.52155810	      5.86236515
      6.12000000	      2.74251367	     -2.85078601	     -1.64717691	      0.50840196	      0.93232226	      0.20862126	    -14.96840254	      6.51427992	     -0.93278354	    -20.87512336	     15.29214618	      6.39011972	      0.00000000	     18.73429958	     -0.55122984	      1.73261199	     -6.39334445	      2.92884751	     -4.12256589	      0.00000000	    -19.84036546	      0.97401231	      5.46523870
